<mxfile host="app.diagrams.net" modified="2023-08-03T08:33:16.396Z" agent="Mozilla/5.0 (Macintosh; Intel Mac OS X 10_15_7) AppleWebKit/605.1.15 (KHTML, like Gecko) Version/16.5.1 Safari/605.1.15" version="21.6.6" etag="cNTJZ2CL6p5_pl656W8P" type="github">
  <diagram name="第 1 页" id="ZLW-lxDaBzHWsr7CC3N0">
    <mxGraphModel>
      <root>
        <mxCell id="0" />
        <mxCell id="1" parent="0" />
      </root>
    </mxGraphModel>
  </diagram>
</mxfile>
